<?xml version="1.0" encoding="UTF-8"?>
<svg xmlns="http://www.w3.org/2000/svg" xmlns:xlink="http://www.w3.org/1999/xlink" width="684pt" height="285pt" viewBox="0 0 684 285" version="1.1">
<g id="surface1">
<path style=" stroke:none;fill-rule:evenodd;fill:rgb(0%,0%,0%);fill-opacity:1;" d="M 91.707031 68.40625 C 89.339844 63.097656 87.449219 58.871094 87.449219 57.101563 C 87.449219 56.148438 87.765625 55.058594 89.496094 54.378906 C 90.917969 53.832031 93.753906 53.695313 95.488281 53.695313 C 96.589844 53.695313 97.066406 53.425781 97.066406 52.742188 C 97.066406 52.0625 95.644531 51.789063 92.808594 51.789063 C 86.820313 51.789063 79.722656 52.199219 78.148438 52.199219 C 76.257813 52.199219 67.269531 51.789063 59.703125 51.789063 C 57.183594 51.789063 55.605469 51.925781 55.605469 52.742188 C 55.605469 53.289063 55.921875 53.695313 56.867188 53.695313 C 57.8125 53.695313 60.492188 53.695313 62.855469 54.242188 C 68.375 55.605469 70.738281 57.101563 74.207031 64.730469 L 112.828125 148.234375 C 115.824219 154.773438 116.613281 156.679688 118.503906 156.679688 C 120.078125 156.679688 120.710938 154.5 125.125 146.328125 C 128.75 139.652344 135.84375 124.941406 145.460938 105.050781 C 153.5 88.296875 161.382813 71.949219 163.113281 68.136719 C 167.371094 58.871094 169.734375 56.558594 171.785156 55.332031 C 174.78125 53.695313 178.246094 53.695313 179.351563 53.695313 C 180.613281 53.695313 181.242188 53.425781 181.242188 52.742188 C 181.242188 52.0625 180.296875 51.789063 178.5625 51.789063 C 173.992188 51.789063 167.214844 52.199219 166.269531 52.199219 C 164.375 52.199219 157.125 51.789063 150.820313 51.789063 C 148.296875 51.789063 147.351563 52.0625 147.351563 52.878906 C 147.351563 53.558594 148.140625 53.695313 149.085938 53.695313 C 150.820313 53.695313 153.183594 53.695313 155.074219 54.242188 C 156.652344 54.921875 157.125 56.285156 157.125 57.375 C 157.125 58.601563 156.496094 60.507813 155.707031 62.550781 C 152.238281 72.359375 131.113281 119.898438 121.972656 138.152344 Z M 621.890625 0.21875 C 626.160156 0.21875 629.621094 3.679688 629.621094 7.945313 C 629.621094 12.214844 626.160156 15.675781 621.890625 15.675781 C 617.625 15.675781 614.164063 12.214844 614.164063 7.945313 C 614.164063 3.679688 617.625 0.21875 621.890625 0.21875 Z M 588.992188 58.40625 L 614.449219 58.40625 L 614.449219 23.691406 C 614.449219 20.542969 617.027344 17.964844 620.175781 17.964844 L 623.609375 17.964844 C 626.757813 17.964844 629.335938 20.542969 629.335938 23.691406 L 629.335938 58.40625 L 655.941406 58.40625 L 647.664063 78.597656 L 643.65625 68.800781 L 629.335938 68.800781 L 629.335938 252.929688 C 629.335938 263.65625 625.605469 274.039063 621.90625 284.023438 C 616.019531 271.707031 614.449219 263.746094 614.449219 251.429688 L 614.449219 68.800781 L 601.753906 68.800781 L 597.34375 78.566406 Z M 148.589844 258.523438 C 173.132813 258.523438 189.222656 239.683594 189.222656 216.871094 C 189.222656 193.144531 172.113281 178.683594 149.203125 178.683594 C 96.816406 178.683594 95.292969 258.523438 148.589844 258.523438 Z M 210.8125 227.566406 C 210.8125 237.339844 210.8125 245.386719 210.300781 249.664063 C 209.894531 252.617188 209.386719 254.855469 207.347656 255.261719 C 206.433594 255.46875 205.210938 255.671875 204.292969 255.671875 C 203.683594 255.671875 203.480469 255.976563 203.480469 256.28125 C 203.480469 256.894531 203.988281 257.097656 205.109375 257.097656 C 208.164063 257.097656 214.578125 256.789063 214.679688 256.789063 C 215.1875 256.789063 221.605469 257.097656 227.203125 257.097656 C 228.324219 257.097656 228.835938 256.789063 228.835938 256.28125 C 228.835938 255.976563 228.632813 255.671875 228.019531 255.671875 C 227.105469 255.671875 224.863281 255.46875 223.4375 255.261719 C 220.382813 254.855469 219.769531 252.617188 219.464844 249.664063 C 218.957031 245.386719 218.957031 237.339844 218.957031 227.566406 L 218.957031 225.121094 C 218.957031 224.609375 219.160156 224.304688 219.671875 224.304688 L 232.195313 224.511719 C 232.804688 224.511719 233.113281 224.714844 233.519531 225.121094 C 235.554688 227.769531 240.34375 234.589844 244.617188 240.191406 C 250.421875 247.828125 253.988281 252.820313 258.367188 255.160156 C 261.015625 256.585938 263.558594 257.097656 269.261719 257.097656 L 276.492188 257.097656 C 278.324219 257.097656 278.9375 256.894531 278.9375 256.28125 C 278.9375 255.976563 278.527344 255.671875 278.019531 255.671875 C 277.410156 255.671875 275.984375 255.671875 274.046875 255.363281 C 271.503906 254.957031 267.125 253.835938 261.625 248.03125 C 255.71875 241.71875 248.792969 232.65625 240.445313 221.964844 C 249.609375 213.511719 252.765625 205.976563 252.765625 198.441406 C 252.765625 191.414063 248.285156 186.425781 245.738281 184.59375 C 240.34375 180.722656 233.519531 180.109375 227.105469 180.109375 C 223.945313 180.109375 216.207031 180.414063 215.089844 180.414063 C 214.578125 180.414063 208.164063 180.109375 203.578125 180.109375 C 202.460938 180.109375 201.949219 180.3125 201.949219 180.925781 C 201.949219 181.332031 202.359375 181.535156 202.765625 181.535156 C 203.683594 181.535156 205.414063 181.636719 206.226563 181.84375 C 209.589844 182.554688 210.402344 184.183594 210.605469 187.644531 C 210.8125 190.90625 210.8125 193.757813 210.8125 209.640625 Z M 82.707031 181.433594 C 82.5 179.5 82.195313 178.683594 81.484375 178.683594 C 80.769531 178.683594 80.363281 179.398438 79.957031 180.3125 L 50.015625 244.265625 L 18.855469 180.210938 C 18.347656 179.09375 17.941406 178.683594 17.328125 178.683594 C 16.71875 178.683594 16.308594 179.398438 16.210938 180.519531 L 8.875 246.914063 C 8.46875 250.78125 8.164063 254.753906 4.804688 255.363281 C 3.277344 255.671875 2.5625 255.671875 1.75 255.671875 C 1.238281 255.671875 0.730469 255.875 0.730469 256.179688 C 0.730469 256.894531 1.445313 257.097656 2.460938 257.097656 C 5.210938 257.097656 10.097656 256.789063 11.015625 256.789063 C 11.832031 256.789063 16.71875 257.097656 20.484375 257.097656 C 21.707031 257.097656 22.320313 256.894531 22.320313 256.179688 C 22.320313 255.875 21.910156 255.671875 21.503906 255.671875 C 20.894531 255.671875 19.367188 255.570313 17.632813 255.160156 C 16.105469 254.855469 14.988281 253.53125 14.988281 252.003906 C 14.988281 250.273438 14.988281 248.441406 15.089844 246.8125 L 19.160156 199.558594 L 19.570313 199.558594 C 20.691406 202.308594 32.09375 226.75 33.011719 228.582031 C 33.519531 229.601563 42.277344 247.21875 44.925781 252.207031 C 46.859375 255.875 47.367188 256.894531 48.082031 256.894531 C 49 256.894531 49.304688 255.976563 51.441406 251.496094 L 76.390625 198.542969 L 76.699219 198.542969 L 81.585938 251.394531 C 81.789063 253.226563 81.6875 254.957031 81.175781 255.058594 C 80.667969 255.160156 80.464844 255.363281 80.464844 255.773438 C 80.464844 256.28125 80.972656 256.585938 83.316406 256.789063 C 87.085938 257.097656 98.082031 257.199219 100.324219 257.199219 C 101.542969 257.199219 102.460938 256.894531 102.460938 256.28125 C 102.460938 255.875 102.15625 255.773438 101.644531 255.773438 C 100.628906 255.773438 97.980469 255.773438 95.027344 254.855469 C 90.648438 253.429688 89.933594 247.726563 89.527344 244.0625 Z M 659.6875 258.523438 C 665.1875 258.523438 670.6875 257.300781 675.0625 254.246094 C 682.089844 249.253906 683.71875 241.515625 683.71875 237.339844 C 683.71875 229.195313 680.867188 222.878906 668.851563 213.410156 L 666 211.167969 C 656.226563 203.53125 653.578125 199.867188 653.578125 194.0625 C 653.578125 186.628906 659.078125 182.25 666.101563 182.25 C 675.472656 182.25 678.222656 186.527344 678.832031 187.644531 C 679.441406 188.765625 680.054688 191.515625 680.15625 192.738281 C 680.257813 193.550781 680.359375 194.0625 680.972656 194.0625 C 681.480469 194.0625 681.683594 193.347656 681.683594 191.71875 C 681.683594 184.796875 682.089844 181.433594 682.089844 180.925781 C 682.089844 180.414063 681.886719 180.210938 681.070313 180.210938 C 680.257813 180.210938 679.441406 180.109375 677.507813 179.703125 C 674.964844 179.09375 672.007813 178.683594 668.039063 178.683594 C 655.105469 178.683594 646.960938 186.117188 646.960938 197.015625 C 646.960938 203.941406 649.402344 210.253906 660.195313 219.113281 L 664.777344 222.878906 C 673.535156 230.109375 676.488281 234.183594 676.488281 241.210938 C 676.488281 247.726563 671.703125 254.753906 661.929688 254.753906 C 655.105469 254.753906 648.382813 251.902344 646.855469 244.367188 C 646.550781 242.941406 646.550781 241.515625 646.550781 240.597656 C 646.550781 239.785156 646.449219 239.480469 645.839844 239.480469 C 645.328125 239.480469 645.125 239.988281 645.023438 241.109375 C 644.921875 242.738281 644.515625 246.8125 644.515625 251.902344 C 644.515625 254.652344 644.617188 255.058594 646.042969 255.773438 C 650.21875 257.808594 654.902344 258.523438 659.6875 258.523438 Z M 567.730469 209.640625 C 567.730469 193.757813 567.730469 190.90625 567.9375 187.644531 C 568.140625 184.082031 568.953125 182.351563 571.90625 181.84375 C 573.128906 181.636719 574.554688 181.535156 575.269531 181.535156 C 575.675781 181.535156 576.082031 181.332031 576.082031 180.925781 C 576.082031 180.3125 575.574219 180.109375 574.453125 180.109375 C 571.398438 180.109375 563.964844 180.414063 563.457031 180.414063 C 562.945313 180.414063 556.53125 180.109375 551.949219 180.109375 C 550.828125 180.109375 550.320313 180.3125 550.320313 180.925781 C 550.320313 181.332031 550.726563 181.535156 551.132813 181.535156 C 552.050781 181.535156 553.78125 181.636719 554.597656 181.84375 C 557.957031 182.554688 558.769531 184.183594 558.976563 187.644531 C 559.179688 190.90625 559.179688 193.757813 559.179688 209.640625 L 559.179688 227.566406 C 559.179688 237.339844 559.179688 245.386719 558.671875 249.664063 C 558.261719 252.617188 557.753906 254.855469 555.714844 255.261719 C 554.800781 255.46875 553.578125 255.671875 552.660156 255.671875 C 552.050781 255.671875 551.847656 255.976563 551.847656 256.28125 C 551.847656 256.894531 552.355469 257.097656 553.476563 257.097656 C 555.003906 257.097656 557.242188 256.992188 559.28125 256.894531 C 561.316406 256.894531 563.046875 256.789063 563.457031 256.789063 C 566.410156 256.789063 569.566406 256.894531 573.84375 257.097656 C 578.121094 257.199219 583.414063 257.402344 590.746094 257.402344 C 596.144531 257.402344 596.449219 256.992188 597.164063 254.652344 C 597.976563 251.699219 598.691406 245.589844 598.691406 244.46875 C 598.691406 243.347656 598.589844 242.941406 598.078125 242.941406 C 597.46875 242.941406 597.265625 243.449219 597.164063 244.265625 C 596.855469 246.199219 595.839844 248.746094 594.515625 250.375 C 592.070313 253.328125 587.589844 253.429688 582.191406 253.429688 C 574.25 253.429688 571.601563 252.71875 569.972656 251.089844 C 568.140625 249.253906 567.730469 242.738281 567.730469 227.769531 Z M 468.753906 224.511719 C 468.753906 239.378906 472.621094 246.503906 477.609375 251.292969 C 484.839844 258.113281 495.125 258.523438 498.589844 258.523438 C 504.597656 258.523438 512.234375 257.503906 519.566406 250.984375 C 527.714844 243.757813 528.933594 231.535156 528.933594 220.539063 L 528.933594 209.640625 C 528.933594 193.757813 528.933594 190.90625 529.140625 187.644531 C 529.34375 184.082031 530.15625 182.453125 532.90625 181.84375 C 534.128906 181.636719 534.738281 181.535156 535.453125 181.535156 C 535.859375 181.535156 536.265625 181.332031 536.265625 180.925781 C 536.265625 180.3125 535.757813 180.109375 534.636719 180.109375 C 531.582031 180.109375 526.796875 180.414063 526.085938 180.414063 C 525.472656 180.414063 519.871094 180.109375 515.289063 180.109375 C 514.167969 180.109375 513.660156 180.3125 513.660156 180.925781 C 513.660156 181.332031 514.066406 181.535156 514.476563 181.535156 C 515.390625 181.535156 517.121094 181.636719 517.9375 181.84375 C 521.296875 182.554688 522.113281 184.183594 522.316406 187.644531 C 522.519531 190.90625 522.519531 193.757813 522.519531 209.640625 L 522.519531 222.371094 C 522.519531 232.859375 521.296875 241.515625 516.613281 247.320313 C 512.945313 251.699219 506.839844 254.652344 500.625 254.652344 C 494.820313 254.652344 490.238281 253.734375 485.246094 249.050781 C 480.871094 244.875 477.609375 238.5625 477.609375 223.898438 L 477.609375 209.640625 C 477.609375 193.757813 477.609375 190.90625 477.816406 187.644531 C 478.019531 184.082031 478.832031 182.25 481.582031 181.84375 C 482.804688 181.636719 483.414063 181.535156 484.128906 181.535156 C 484.535156 181.535156 484.941406 181.332031 484.941406 180.925781 C 484.941406 180.3125 484.433594 180.109375 483.3125 180.109375 C 480.257813 180.109375 474.148438 180.414063 473.230469 180.414063 C 472.316406 180.414063 466.105469 180.109375 461.523438 180.109375 C 460.402344 180.109375 459.894531 180.3125 459.894531 180.925781 C 459.894531 181.332031 460.300781 181.535156 460.707031 181.535156 C 461.621094 181.535156 463.355469 181.636719 464.171875 181.84375 C 467.53125 182.554688 468.34375 184.183594 468.546875 187.644531 C 468.753906 190.90625 468.753906 193.757813 468.753906 209.640625 Z M 438.40625 209.640625 C 438.40625 193.757813 438.40625 190.90625 438.609375 187.644531 C 438.8125 184.082031 439.628906 182.351563 442.378906 181.84375 C 443.597656 181.636719 444.210938 181.535156 444.921875 181.535156 C 445.328125 181.535156 445.738281 181.332031 445.738281 180.925781 C 445.738281 180.3125 445.230469 180.109375 444.109375 180.109375 C 441.054688 180.109375 434.636719 180.414063 434.128906 180.414063 C 433.617188 180.414063 427.203125 180.109375 422.621094 180.109375 C 421.5 180.109375 420.992188 180.3125 420.992188 180.925781 C 420.992188 181.332031 421.398438 181.535156 421.808594 181.535156 C 422.722656 181.535156 424.453125 181.636719 425.269531 181.84375 C 428.628906 182.554688 429.445313 184.183594 429.648438 187.644531 C 429.851563 190.90625 429.851563 193.757813 429.851563 209.640625 L 429.851563 211.78125 C 429.851563 212.289063 429.546875 212.390625 429.242188 212.390625 L 386.0625 212.390625 C 385.757813 212.390625 385.453125 212.289063 385.453125 211.78125 L 385.453125 209.640625 C 385.453125 193.757813 385.453125 190.90625 385.65625 187.644531 C 385.859375 184.082031 386.675781 182.351563 389.425781 181.84375 C 390.644531 181.636719 391.257813 181.535156 391.96875 181.535156 C 392.378906 181.535156 392.785156 181.332031 392.785156 180.925781 C 392.785156 180.3125 392.273438 180.109375 391.15625 180.109375 C 388.101563 180.109375 381.683594 180.414063 381.175781 180.414063 C 380.667969 180.414063 374.25 180.109375 369.667969 180.109375 C 368.546875 180.109375 368.039063 180.3125 368.039063 180.925781 C 368.039063 181.332031 368.445313 181.535156 368.855469 181.535156 C 369.769531 181.535156 371.503906 181.636719 372.316406 181.84375 C 375.675781 182.554688 376.492188 184.183594 376.695313 187.644531 C 376.898438 190.90625 376.898438 193.757813 376.898438 209.640625 L 376.898438 227.566406 C 376.898438 237.339844 376.898438 245.386719 376.390625 249.664063 C 375.980469 252.617188 375.472656 254.855469 373.4375 255.261719 C 372.519531 255.46875 371.296875 255.671875 370.382813 255.671875 C 369.769531 255.671875 369.566406 255.976563 369.566406 256.28125 C 369.566406 256.894531 370.074219 257.097656 371.195313 257.097656 C 374.25 257.097656 380.667969 256.789063 381.175781 256.789063 C 381.683594 256.789063 388.101563 257.097656 393.699219 257.097656 C 394.820313 257.097656 395.328125 256.789063 395.328125 256.28125 C 395.328125 255.976563 395.128906 255.671875 394.515625 255.671875 C 393.597656 255.671875 391.359375 255.46875 389.933594 255.261719 C 386.878906 254.855469 386.269531 252.617188 385.960938 249.664063 C 385.453125 245.386719 385.453125 237.339844 385.453125 227.566406 L 385.453125 216.871094 C 385.453125 216.363281 385.757813 216.261719 386.0625 216.261719 L 429.242188 216.261719 C 429.546875 216.261719 429.851563 216.464844 429.851563 216.871094 L 429.851563 227.566406 C 429.851563 237.339844 429.851563 245.386719 429.34375 249.664063 C 428.933594 252.617188 428.425781 254.855469 426.390625 255.261719 C 425.472656 255.46875 424.25 255.671875 423.335938 255.671875 C 422.722656 255.671875 422.519531 255.976563 422.519531 256.28125 C 422.519531 256.894531 423.027344 257.097656 424.148438 257.097656 C 427.203125 257.097656 433.617188 256.789063 434.128906 256.789063 C 434.636719 256.789063 441.054688 257.097656 446.652344 257.097656 C 447.773438 257.097656 448.28125 256.789063 448.28125 256.28125 C 448.28125 255.976563 448.078125 255.671875 447.46875 255.671875 C 446.550781 255.671875 444.3125 255.46875 442.886719 255.261719 C 439.832031 254.855469 439.21875 252.617188 438.914063 249.664063 C 438.40625 245.386719 438.40625 237.339844 438.40625 227.566406 Z M 337.488281 248.441406 C 337.488281 250.171875 336.777344 251.292969 335.453125 252.003906 C 332.804688 253.53125 327.511719 254.144531 323.84375 254.144531 C 314.476563 254.144531 305.210938 251.089844 297.164063 243.246094 C 293.601563 239.785156 286.371094 229.398438 286.371094 215.039063 C 286.371094 203.125 290.546875 193.859375 296.449219 189.171875 C 304.191406 183.0625 311.828125 182.453125 318.242188 182.453125 C 331.378906 182.453125 339.628906 186.832031 342.175781 190.703125 C 343.703125 193.144531 344.210938 195.996094 344.3125 197.421875 C 344.414063 198.339844 344.515625 198.949219 345.023438 198.949219 C 345.738281 198.949219 345.941406 198.441406 345.941406 196.8125 C 345.941406 186.628906 346.65625 183.777344 346.65625 182.351563 C 346.65625 181.945313 346.449219 181.535156 345.433594 181.433594 C 342.886719 181.332031 339.324219 180.925781 337.183594 180.414063 C 335.25 180.007813 328.019531 178.683594 321.605469 178.683594 C 313.761719 178.683594 303.679688 179.398438 294.515625 185.101563 C 285.453125 190.804688 277.511719 202.308594 277.511719 218.601563 C 277.511719 231.332031 283.417969 242.226563 289.628906 247.625 C 300.933594 257.503906 315.390625 258.523438 323.132813 258.523438 C 329.039063 258.523438 338.203125 257.402344 344.71875 253.9375 C 345.941406 253.226563 346.042969 253.023438 346.042969 248.441406 L 346.042969 237.035156 C 346.042969 232.757813 346.042969 229.703125 346.246094 226.445313 C 346.449219 222.878906 347.265625 221.148438 350.015625 220.640625 C 351.238281 220.4375 351.847656 220.335938 352.5625 220.335938 C 352.96875 220.335938 353.375 220.132813 353.375 219.722656 C 353.375 219.113281 352.867188 218.910156 351.746094 218.910156 C 348.691406 218.910156 342.277344 219.214844 341.765625 219.214844 C 341.257813 219.214844 334.84375 218.910156 330.261719 218.910156 C 329.140625 218.910156 328.628906 219.113281 328.628906 219.722656 C 328.628906 220.132813 329.039063 220.335938 329.445313 220.335938 C 330.363281 220.335938 332.09375 220.4375 332.90625 220.640625 C 336.980469 221.761719 337.488281 222.878906 337.488281 231.128906 Z M 218.957031 185.203125 C 218.957031 184.59375 219.261719 184.183594 219.769531 183.980469 C 220.789063 183.675781 223.539063 183.371094 226.59375 183.371094 C 237.488281 183.371094 244.210938 191.007813 244.210938 203.734375 C 244.210938 211.476563 241.5625 216.972656 238 219.417969 C 235.65625 221.046875 232.804688 221.351563 230.363281 221.351563 C 225.882813 221.351563 221.195313 220.640625 219.671875 219.722656 C 219.160156 219.417969 218.957031 219.011719 218.957031 218.5 Z M 147.96875 184.890625 C 146.835938 184.910156 145.738281 184.984375 144.667969 185.109375 L 144.667969 251.980469 C 145.734375 252.210938 146.835938 252.371094 147.964844 252.46875 Z M 155.859375 252.117188 C 158.21875 251.703125 160.398438 250.992188 162.398438 249.988281 C 165.84375 248.265625 168.734375 245.972656 171.074219 243.101563 C 173.414063 240.230469 175.183594 236.898438 176.375 233.101563 C 177.566406 229.300781 178.160156 225.285156 178.160156 221.042969 C 178.160156 216.71875 177.523438 212.394531 176.242188 208.066406 C 174.960938 203.738281 173.0625 199.851563 170.546875 196.410156 C 168.03125 192.964844 164.9375 190.183594 161.273438 188.0625 C 159.585938 187.089844 157.78125 186.335938 155.859375 185.808594 Z M 153.5625 185.296875 C 152.496094 185.109375 151.394531 184.988281 150.265625 184.925781 L 150.265625 252.570313 C 150.335938 252.570313 150.40625 252.570313 150.476563 252.570313 C 151.535156 252.570313 152.566406 252.523438 153.5625 252.429688 Z M 142.390625 185.46875 C 140.339844 185.878906 138.421875 186.5 136.636719 187.335938 C 133.144531 188.972656 130.210938 191.222656 127.824219 194.089844 C 125.441406 196.960938 123.609375 200.273438 122.328125 204.023438 C 121.046875 207.777344 120.40625 211.773438 120.40625 216.011719 C 120.40625 220.429688 121.074219 224.800781 122.398438 229.125 C 123.722656 233.453125 125.6875 237.359375 128.289063 240.847656 C 130.894531 244.339844 134.054688 247.164063 137.761719 249.324219 C 139.222656 250.179688 140.765625 250.863281 142.394531 251.378906 Z M 470.160156 120.058594 C 470.160156 131.621094 470.160156 141.140625 469.441406 146.199219 C 468.863281 149.691406 468.140625 152.34375 465.257813 152.824219 C 463.957031 153.066406 462.226563 153.304688 460.925781 153.304688 C 460.0625 153.304688 459.773438 153.667969 459.773438 154.027344 C 459.773438 154.753906 460.492188 154.992188 462.082031 154.992188 C 466.410156 154.992188 475.5 154.632813 475.644531 154.632813 C 476.367188 154.632813 485.457031 154.992188 493.394531 154.992188 C 494.980469 154.992188 495.703125 154.632813 495.703125 154.027344 C 495.703125 153.667969 495.414063 153.304688 494.546875 153.304688 C 493.25 153.304688 490.074219 153.066406 488.054688 152.824219 C 483.726563 152.34375 482.859375 149.691406 482.425781 146.199219 C 481.703125 141.140625 481.703125 131.621094 481.703125 120.058594 L 481.703125 117.167969 C 481.703125 116.5625 481.992188 116.203125 482.714844 116.203125 L 500.464844 116.445313 C 501.328125 116.445313 501.761719 116.683594 502.339844 117.167969 C 505.226563 120.300781 512.007813 128.371094 518.066406 134.996094 C 526.292969 144.03125 531.34375 149.933594 537.546875 152.703125 C 541.296875 154.390625 544.90625 154.992188 552.984375 154.992188 L 563.230469 154.992188 C 565.828125 154.992188 566.695313 154.753906 566.695313 154.027344 C 566.695313 153.667969 566.117188 153.304688 565.394531 153.304688 C 564.53125 153.304688 562.511719 153.304688 559.769531 152.945313 C 556.160156 152.464844 549.957031 151.136719 542.164063 144.269531 C 533.796875 136.804688 523.984375 126.082031 512.152344 113.433594 C 525.136719 103.433594 529.609375 94.519531 529.609375 85.605469 C 529.609375 77.292969 523.261719 71.390625 519.652344 69.222656 C 512.007813 64.644531 502.339844 63.921875 493.25 63.921875 C 488.773438 63.921875 477.808594 64.28125 476.222656 64.28125 C 475.5 64.28125 466.410156 63.921875 459.914063 63.921875 C 458.328125 63.921875 457.609375 64.160156 457.609375 64.886719 C 457.609375 65.367188 458.1875 65.605469 458.761719 65.605469 C 460.0625 65.605469 462.515625 65.726563 463.667969 65.96875 C 468.429688 66.8125 469.585938 68.738281 469.871094 72.835938 C 470.160156 76.691406 470.160156 80.0625 470.160156 98.855469 Z M 481.703125 69.945313 C 481.703125 69.222656 482.136719 68.738281 482.859375 68.5 C 484.300781 68.136719 488.199219 67.777344 492.527344 67.777344 C 507.96875 67.777344 517.488281 76.8125 517.488281 91.867188 C 517.488281 101.023438 513.738281 107.53125 508.6875 110.421875 C 505.367188 112.347656 501.328125 112.710938 497.867188 112.710938 C 491.515625 112.710938 484.878906 111.867188 482.714844 110.78125 C 481.992188 110.421875 481.703125 109.9375 481.703125 109.335938 Z M 357.179688 141.742188 C 354.582031 147.765625 351.695313 152.34375 345.058594 153.066406 C 343.902344 153.1875 341.882813 153.304688 340.875 153.304688 C 340.152344 153.304688 339.574219 153.546875 339.574219 154.027344 C 339.574219 154.753906 340.441406 154.992188 342.316406 154.992188 C 349.097656 154.992188 357.035156 154.632813 358.621094 154.632813 C 360.210938 154.632813 366.414063 154.992188 369.878906 154.992188 C 371.175781 154.992188 372.042969 154.753906 372.042969 154.027344 C 372.042969 153.546875 371.609375 153.304688 370.597656 153.304688 L 369.15625 153.304688 C 366.703125 153.304688 363.671875 152.222656 363.671875 149.8125 C 363.671875 147.644531 364.394531 144.753906 365.691406 141.742188 L 374.351563 120.417969 C 374.640625 119.816406 375.070313 119.453125 375.792969 119.453125 L 406.816406 119.453125 C 407.539063 119.453125 407.828125 119.695313 408.113281 120.179688 L 421.535156 149.8125 C 422.398438 151.738281 421.535156 152.824219 420.667969 153.066406 C 420.09375 153.1875 419.660156 153.425781 419.660156 153.910156 C 419.660156 154.632813 421.246094 154.632813 423.988281 154.753906 C 433.941406 154.992188 444.476563 154.992188 446.640625 154.992188 C 448.230469 154.992188 449.527344 154.753906 449.527344 154.027344 C 449.527344 153.425781 448.949219 153.304688 448.085938 153.304688 C 446.640625 153.304688 444.476563 153.1875 442.3125 152.585938 C 439.28125 151.859375 435.097656 149.933594 429.902344 139.210938 C 421.101563 120.902344 398.445313 71.148438 396.28125 66.570313 C 394.550781 62.835938 393.972656 62.234375 393.109375 62.234375 C 392.242188 62.234375 391.664063 62.957031 389.933594 66.933594 Z M 377.378906 115.117188 C 376.949219 115.117188 376.660156 114.878906 376.949219 114.273438 L 389.644531 81.75 C 390.367188 79.941406 391.089844 79.941406 391.808594 81.75 L 405.519531 114.273438 C 405.660156 114.757813 405.660156 115.117188 404.941406 115.117188 Z M 294.410156 98.855469 C 294.410156 80.0625 294.410156 76.691406 294.699219 72.835938 C 294.988281 68.617188 296.144531 66.570313 300.328125 65.96875 C 302.058594 65.726563 304.078125 65.605469 305.089844 65.605469 C 305.664063 65.605469 306.242188 65.367188 306.242188 64.886719 C 306.242188 64.160156 305.523438 63.921875 303.933594 63.921875 C 299.605469 63.921875 289.074219 64.28125 288.351563 64.28125 C 287.628906 64.28125 278.539063 63.921875 272.046875 63.921875 C 270.460938 63.921875 269.738281 64.160156 269.738281 64.886719 C 269.738281 65.367188 270.316406 65.605469 270.890625 65.605469 C 272.191406 65.605469 274.644531 65.726563 275.796875 65.96875 C 280.558594 66.8125 281.714844 68.738281 282.003906 72.835938 C 282.289063 76.691406 282.289063 80.0625 282.289063 98.855469 L 282.289063 120.058594 C 282.289063 131.621094 282.289063 141.140625 281.570313 146.199219 C 280.992188 149.691406 280.269531 152.34375 277.386719 152.824219 C 276.085938 153.066406 274.355469 153.304688 273.054688 153.304688 C 272.191406 153.304688 271.902344 153.667969 271.902344 154.027344 C 271.902344 154.753906 272.621094 154.992188 274.210938 154.992188 C 276.375 154.992188 279.550781 154.871094 282.4375 154.753906 C 285.320313 154.753906 287.773438 154.632813 288.351563 154.632813 C 292.535156 154.632813 297.007813 154.753906 303.070313 154.992188 C 309.128906 155.113281 316.632813 155.355469 327.023438 155.355469 C 334.671875 155.355469 335.101563 154.871094 336.113281 152.101563 C 337.265625 148.609375 338.277344 141.378906 338.277344 140.054688 C 338.277344 138.730469 338.132813 138.246094 337.410156 138.246094 C 336.546875 138.246094 336.257813 138.851563 336.113281 139.8125 C 335.679688 142.101563 334.238281 145.113281 332.359375 147.042969 C 328.898438 150.535156 322.550781 150.65625 314.902344 150.65625 C 303.644531 150.65625 299.894531 149.8125 297.585938 147.886719 C 294.988281 145.71875 294.410156 138.007813 294.410156 120.300781 Z M 169.308594 141.742188 C 166.710938 147.765625 163.824219 152.34375 157.1875 153.066406 C 156.035156 153.1875 154.015625 153.304688 153.003906 153.304688 C 152.28125 153.304688 151.703125 153.546875 151.703125 154.027344 C 151.703125 154.753906 152.570313 154.992188 154.445313 154.992188 C 161.230469 154.992188 169.164063 154.632813 170.753906 154.632813 C 172.339844 154.632813 178.542969 154.992188 182.007813 154.992188 C 183.304688 154.992188 184.171875 154.753906 184.171875 154.027344 C 184.171875 153.546875 183.738281 153.304688 182.726563 153.304688 L 181.285156 153.304688 C 178.832031 153.304688 175.800781 152.222656 175.800781 149.8125 C 175.800781 147.644531 176.523438 144.753906 177.820313 141.742188 L 186.480469 120.417969 C 186.769531 119.816406 187.203125 119.453125 187.921875 119.453125 L 218.945313 119.453125 C 219.667969 119.453125 219.957031 119.695313 220.246094 120.179688 L 233.664063 149.8125 C 234.53125 151.738281 233.664063 152.824219 232.796875 153.066406 C 232.222656 153.1875 231.789063 153.425781 231.789063 153.910156 C 231.789063 154.632813 233.375 154.632813 236.117188 154.753906 C 246.074219 154.992188 256.605469 154.992188 258.769531 154.992188 C 260.359375 154.992188 261.65625 154.753906 261.65625 154.027344 C 261.65625 153.425781 261.078125 153.304688 260.214844 153.304688 C 258.769531 153.304688 256.605469 153.1875 254.441406 152.585938 C 251.410156 151.859375 247.226563 149.933594 242.03125 139.210938 C 233.230469 120.902344 210.578125 71.148438 208.414063 66.570313 C 206.679688 62.835938 206.105469 62.234375 205.238281 62.234375 C 204.371094 62.234375 203.796875 62.957031 202.0625 66.933594 Z M 189.511719 115.117188 C 189.078125 115.117188 188.789063 114.878906 189.078125 114.273438 L 201.773438 81.75 C 202.496094 79.941406 203.21875 79.941406 203.941406 81.75 L 217.648438 114.273438 C 217.789063 114.757813 217.789063 115.117188 217.070313 115.117188 L 189.511719 115.117188 "/>
</g>
</svg>
